<?xml version="1.0" encoding="UTF-8" standalone="no"?>
<svg width="705px" height="186px" viewBox="0 0 705 186" version="1.1" xmlns="http://www.w3.org/2000/svg" xmlns:xlink="http://www.w3.org/1999/xlink">
    <!-- Generator: Sketch 41.2 (35397) - http://www.bohemiancoding.com/sketch -->
    <title>ilustracion</title>
    <desc>Created with Sketch.</desc>
    <defs></defs>
    <g id="update-string" stroke="none" stroke-width="1" fill="none" fill-rule="evenodd">
        <g id="col-md-[992-1199]" transform="translate(-248.000000, -438.000000)" fill="#4641A3">
            <g id="ilustracion" transform="translate(248.000000, 438.000000)">
                <g id="floor" transform="translate(0.000000, 94.000000)">
                    <g id="line" transform="translate(220.000000, 87.000000)">
                        <rect id="Rectangle" x="56" y="0" width="209" height="5" rx="2.5"></rect>
                        <rect id="Rectangle" x="0" y="0" width="36" height="5" rx="2.5"></rect>
                    </g>
                    <g id="line" transform="translate(92.000000, 58.000000)">
                        <rect id="Rectangle" x="443" y="0" width="78" height="5" rx="2.5"></rect>
                        <rect id="Rectangle" x="321" y="0" width="102" height="5" rx="2.5"></rect>
                        <rect id="Rectangle" x="98" y="0" width="203" height="5" rx="2.5"></rect>
                        <rect id="Rectangle" x="0" y="0" width="78" height="5" rx="2.5"></rect>
                    </g>
                    <g id="line" transform="translate(24.000000, 29.000000)">
                        <rect id="Rectangle" x="603" y="0" width="54" height="5" rx="2.5"></rect>
                        <rect id="Rectangle" x="443" y="0" width="140" height="5" rx="2.5"></rect>
                        <rect id="Rectangle" x="283" y="0" width="140" height="5" rx="2.5"></rect>
                        <rect id="Rectangle" x="74" y="0" width="189" height="5" rx="2.5"></rect>
                        <rect id="Rectangle" x="0" y="0" width="54" height="5" rx="2.5"></rect>
                    </g>
                    <g id="line">
                        <rect id="Rectangle" x="612" y="0" width="93" height="5" rx="2.5"></rect>
                        <rect id="Rectangle" x="251" y="0" width="341" height="5" rx="2.5"></rect>
                        <rect id="Rectangle" x="113" y="0" width="118" height="5" rx="2.5"></rect>
                        <rect id="Rectangle" x="0" y="0" width="93" height="5" rx="2.5"></rect>
                    </g>
                </g>
                <g id="car3" transform="translate(249.000000, 0.000000)">
                    <path d="M161.366801,60.3145339 C151.901262,60.3145339 144.2,68.0191949 144.2,77.4898093 C144.2,86.9600212 151.900859,94.6650847 161.366801,94.6650847 C170.83234,94.6650847 178.533602,86.9604237 178.533602,77.4898093 C178.533199,68.0195975 170.83234,60.3145339 161.366801,60.3145339 Z M161.366801,87.7948941 C155.688121,87.7948941 151.066801,83.1712924 151.066801,77.4898093 C151.066801,71.8083263 155.688121,67.1847246 161.366801,67.1847246 C167.04548,67.1847246 171.666801,71.8083263 171.666801,77.4898093 C171.666801,83.1712924 167.04548,87.7948941 161.366801,87.7948941 Z" id="Shape"></path>
                    <path d="M44.6331992,60.3145339 C35.1676602,60.3145339 27.4663984,68.0191949 27.4663984,77.4898093 C27.4663984,86.9600212 35.1672578,94.6650847 44.6331992,94.6650847 C54.0987383,94.6650847 61.8,86.9604237 61.8,77.4898093 C61.8,68.0195975 54.0991406,60.3145339 44.6331992,60.3145339 Z M44.6331992,87.7948941 C38.9545195,87.7948941 34.3331992,83.1712924 34.3331992,77.4898093 C34.3331992,71.8083263 38.9545195,67.1847246 44.6331992,67.1847246 C50.3118789,67.1847246 54.9331992,71.8083263 54.9331992,77.4898093 C54.9331992,83.1712924 50.3118789,87.7948941 44.6331992,87.7948941 Z" id="Shape"></path>
                    <path d="M202.566801,60.3145339 L202.566801,39.7043644 C202.566801,38.2238136 201.6225,36.9115254 200.21832,36.4445763 L180.843859,29.9833686 C173.54816,17.6208898 163.51934,5.8557839 141.357039,1.97084746 C141.316,1.96400424 141.274559,1.95716102 141.23352,1.9503178 C100.30832,-3.71063559 69.5797187,5.52610169 49.852,29.4133686 C27.0443398,29.7430508 3.43319922,36.9393008 3.43319922,50.0094492 L3.43319922,60.3145339 C1.53816016,60.3145339 0,61.8534534 0,63.749428 L0,77.4894068 C0,79.3853814 1.53816016,80.9243008 3.43319922,80.9243008 L17.1663984,80.9243008 C19.0614375,80.9243008 20.5995977,79.3853814 20.5995977,77.4894068 C20.5995977,64.2300636 31.3803984,53.4443432 44.6327969,53.4443432 C57.8851953,53.4443432 68.6659961,64.2304661 68.6659961,77.4894068 C68.6659961,79.3853814 70.2041562,80.9243008 72.0991953,80.9243008 L133.899195,80.9243008 C135.794234,80.9243008 137.332395,79.3853814 137.332395,77.4894068 C137.332395,64.2300636 148.113195,53.4443432 161.365594,53.4443432 C174.618395,53.4443432 185.398793,64.2304661 185.398793,77.4894068 C185.398793,79.3853814 186.936953,80.9243008 188.831992,80.9243008 L202.565191,80.9243008 C204.46023,80.9243008 205.998391,79.3853814 205.998391,77.4894068 L205.998391,63.749428 C206,61.8534534 204.46184,60.3145339 202.566801,60.3145339 Z M158.101379,15.1645763 C164.064918,18.8228814 168.508,23.6525847 172.363258,29.3992797 L157.967398,29.3992797 L158.101379,15.1645763 Z M116.733199,7.20550847 C124.07718,7.10608051 131.887879,7.5971822 140.2345,8.75127119 C144.36818,9.47947034 148.000539,10.5136017 151.26918,11.7981144 L151.101,29.4025 L116.733199,29.4025 L116.733199,7.20550847 Z M109.866801,7.49775424 L109.866801,29.4029025 L59.1288398,29.4029025 C71.8561797,16.2671398 88.6383398,9.00889831 109.866801,7.49775424 Z M199.133199,74.0549153 L192.077699,74.0549153 C190.36452,58.6178178 177.245699,46.5745551 161.366398,46.5745551 C145.487098,46.5745551 132.368277,58.6178178 130.655098,74.0549153 L75.3445,74.0549153 C73.6313203,58.6178178 60.5125,46.5745551 44.6331992,46.5745551 C28.7538984,46.5745551 15.6350781,58.6178178 13.9218984,74.0549153 L6.86680078,74.0549153 L6.86680078,67.1847246 C8.76183984,67.1847246 10.3,65.6458051 10.3,63.7498305 L10.3,53.4447458 L13.7331992,53.4447458 C15.6282383,53.4447458 17.1663984,51.9058263 17.1663984,50.0098517 C17.1663984,48.1138771 15.6282383,46.5749576 13.7331992,46.5749576 L11.9548398,46.5749576 C16.6003008,41.529089 30.8106797,36.2698729 51.5,36.2698729 L177.973539,36.2698729 L195.7,42.1816102 L195.7,46.5749576 L192.266801,46.5749576 C190.371762,46.5749576 188.833602,48.1138771 188.833602,50.0098517 C188.833602,51.9058263 190.371762,53.4447458 192.266801,53.4447458 L195.7,53.4447458 L195.7,63.7498305 C195.7,65.6458051 197.23816,67.1847246 199.133199,67.1847246 L199.133199,74.0549153 Z" id="Shape"></path>
                </g>
            </g>
        </g>
    </g>
</svg>